<svg width="145" height="296" viewBox="0 0 145 296" fill="none" xmlns="http://www.w3.org/2000/svg">
<circle cx="5" cy="156" r="5" fill="white" fill-opacity="0.1"/>
<circle cx="20" cy="156" r="5" fill="white" fill-opacity="0.1"/>
<circle cx="35" cy="156" r="5" fill="white" fill-opacity="0.1"/>
<circle cx="50" cy="156" r="5" fill="white" fill-opacity="0.1"/>
<circle cx="65" cy="156" r="5" fill="white" fill-opacity="0.1"/>
<circle cx="80" cy="156" r="5" fill="white" fill-opacity="0.1"/>
<circle cx="95" cy="156" r="5" fill="white" fill-opacity="0.1"/>
<circle cx="110" cy="156" r="5" fill="white" fill-opacity="0.1"/>
<circle cx="125" cy="156" r="5" fill="white" fill-opacity="0.1"/>
<circle cx="140" cy="156" r="5" fill="white" fill-opacity="0.1"/>
<circle cx="5" cy="171" r="5" fill="white" fill-opacity="0.1"/>
<circle cx="20" cy="171" r="5" fill="white" fill-opacity="0.1"/>
<circle cx="35" cy="171" r="5" fill="white" fill-opacity="0.1"/>
<circle cx="50" cy="171" r="5" fill="white" fill-opacity="0.1"/>
<circle cx="65" cy="171" r="5" fill="white" fill-opacity="0.1"/>
<circle cx="80" cy="171" r="5" fill="white" fill-opacity="0.1"/>
<circle cx="95" cy="171" r="5" fill="white" fill-opacity="0.1"/>
<circle cx="110" cy="171" r="5" fill="white" fill-opacity="0.1"/>
<circle cx="125" cy="171" r="5" fill="white" fill-opacity="0.1"/>
<circle cx="140" cy="171" r="5" fill="white" fill-opacity="0.1"/>
<circle cx="5" cy="186" r="5" fill="white" fill-opacity="0.1"/>
<circle cx="20" cy="186" r="5" fill="white" fill-opacity="0.1"/>
<circle cx="35" cy="186" r="5" fill="white" fill-opacity="0.1"/>
<circle cx="50" cy="186" r="5" fill="white" fill-opacity="0.1"/>
<circle cx="65" cy="186" r="5" fill="white" fill-opacity="0.1"/>
<circle cx="80" cy="186" r="5" fill="white" fill-opacity="0.1"/>
<circle cx="95" cy="186" r="5" fill="white" fill-opacity="0.1"/>
<circle cx="110" cy="186" r="5" fill="white" fill-opacity="0.1"/>
<circle cx="125" cy="186" r="5" fill="white" fill-opacity="0.1"/>
<circle cx="140" cy="186" r="5" fill="white" fill-opacity="0.1"/>
<circle cx="5" cy="201" r="5" fill="white" fill-opacity="0.1"/>
<circle cx="20" cy="201" r="5" fill="white" fill-opacity="0.1"/>
<circle cx="35" cy="201" r="5" fill="white" fill-opacity="0.1"/>
<circle cx="50" cy="201" r="5" fill="white" fill-opacity="0.1"/>
<circle cx="65" cy="201" r="5" fill="white" fill-opacity="0.1"/>
<circle cx="80" cy="201" r="5" fill="white" fill-opacity="0.1"/>
<circle cx="95" cy="201" r="5" fill="white" fill-opacity="0.1"/>
<circle cx="110" cy="201" r="5" fill="white" fill-opacity="0.1"/>
<circle cx="125" cy="201" r="5" fill="white" fill-opacity="0.1"/>
<circle cx="140" cy="201" r="5" fill="white" fill-opacity="0.1"/>
<circle cx="5" cy="216" r="5" fill="white" fill-opacity="0.1"/>
<circle cx="20" cy="216" r="5" fill="white" fill-opacity="0.1"/>
<circle cx="35" cy="216" r="5" fill="white" fill-opacity="0.1"/>
<circle cx="50" cy="216" r="5" fill="white" fill-opacity="0.1"/>
<circle cx="65" cy="216" r="5" fill="white" fill-opacity="0.1"/>
<circle cx="80" cy="216" r="5" fill="white" fill-opacity="0.1"/>
<circle cx="95" cy="216" r="5" fill="white" fill-opacity="0.1"/>
<circle cx="110" cy="216" r="5" fill="white" fill-opacity="0.1"/>
<circle cx="125" cy="216" r="5" fill="white" fill-opacity="0.1"/>
<circle cx="140" cy="216" r="5" fill="white" fill-opacity="0.1"/>
<circle cx="5" cy="231" r="5" fill="white" fill-opacity="0.1"/>
<circle cx="20" cy="231" r="5" fill="white" fill-opacity="0.1"/>
<circle cx="35" cy="231" r="5" fill="white" fill-opacity="0.1"/>
<circle cx="50" cy="231" r="5" fill="white" fill-opacity="0.1"/>
<circle cx="65" cy="231" r="5" fill="white" fill-opacity="0.1"/>
<circle cx="80" cy="231" r="5" fill="white" fill-opacity="0.1"/>
<circle cx="95" cy="231" r="5" fill="white" fill-opacity="0.1"/>
<circle cx="110" cy="231" r="5" fill="white" fill-opacity="0.1"/>
<circle cx="125" cy="231" r="5" fill="white" fill-opacity="0.1"/>
<circle cx="140" cy="231" r="5" fill="white" fill-opacity="0.1"/>
<circle cx="5" cy="246" r="5" fill="white" fill-opacity="0.1"/>
<circle cx="20" cy="246" r="5" fill="white" fill-opacity="0.1"/>
<circle cx="35" cy="246" r="5" fill="white" fill-opacity="0.1"/>
<circle cx="50" cy="246" r="5" fill="white" fill-opacity="0.1"/>
<circle cx="65" cy="246" r="5" fill="white" fill-opacity="0.1"/>
<circle cx="80" cy="246" r="5" fill="white" fill-opacity="0.1"/>
<circle cx="95" cy="246" r="5" fill="white" fill-opacity="0.1"/>
<circle cx="110" cy="246" r="5" fill="white" fill-opacity="0.1"/>
<circle cx="125" cy="246" r="5" fill="white" fill-opacity="0.1"/>
<circle cx="140" cy="246" r="5" fill="white" fill-opacity="0.1"/>
<circle cx="5" cy="261" r="5" fill="white" fill-opacity="0.1"/>
<circle cx="20" cy="261" r="5" fill="white" fill-opacity="0.1"/>
<circle cx="35" cy="261" r="5" fill="white" fill-opacity="0.1"/>
<circle cx="50" cy="261" r="5" fill="white" fill-opacity="0.1"/>
<circle cx="65" cy="261" r="5" fill="white" fill-opacity="0.1"/>
<circle cx="80" cy="261" r="5" fill="white" fill-opacity="0.1"/>
<circle cx="95" cy="261" r="5" fill="white" fill-opacity="0.1"/>
<circle cx="110" cy="261" r="5" fill="white" fill-opacity="0.1"/>
<circle cx="125" cy="261" r="5" fill="white" fill-opacity="0.1"/>
<circle cx="140" cy="261" r="5" fill="white" fill-opacity="0.1"/>
<circle cx="5" cy="276" r="5" fill="white" fill-opacity="0.1"/>
<circle cx="20" cy="276" r="5" fill="white" fill-opacity="0.1"/>
<circle cx="35" cy="276" r="5" fill="white" fill-opacity="0.1"/>
<circle cx="50" cy="276" r="5" fill="white" fill-opacity="0.1"/>
<circle cx="65" cy="276" r="5" fill="white" fill-opacity="0.1"/>
<circle cx="80" cy="276" r="5" fill="white" fill-opacity="0.1"/>
<circle cx="95" cy="276" r="5" fill="white" fill-opacity="0.1"/>
<circle cx="110" cy="276" r="5" fill="white" fill-opacity="0.1"/>
<circle cx="125" cy="276" r="5" fill="white" fill-opacity="0.1"/>
<circle cx="140" cy="276" r="5" fill="white" fill-opacity="0.1"/>
<circle cx="5" cy="291" r="5" fill="white" fill-opacity="0.1"/>
<circle cx="20" cy="291" r="5" fill="white" fill-opacity="0.1"/>
<circle cx="35" cy="291" r="5" fill="white" fill-opacity="0.1"/>
<circle cx="50" cy="291" r="5" fill="white" fill-opacity="0.1"/>
<circle cx="65" cy="291" r="5" fill="white" fill-opacity="0.1"/>
<circle cx="80" cy="291" r="5" fill="white" fill-opacity="0.1"/>
<circle cx="95" cy="291" r="5" fill="white" fill-opacity="0.1"/>
<circle cx="110" cy="291" r="5" fill="white" fill-opacity="0.1"/>
<circle cx="125" cy="291" r="5" fill="white" fill-opacity="0.1"/>
<circle cx="140" cy="291" r="5" fill="white" fill-opacity="0.1"/>
<circle cx="5" cy="5" r="5" fill="white" fill-opacity="0.1"/>
<circle cx="20" cy="5" r="5" fill="white" fill-opacity="0.1"/>
<circle cx="35" cy="5" r="5" fill="white" fill-opacity="0.1"/>
<circle cx="50" cy="5" r="5" fill="white" fill-opacity="0.1"/>
<circle cx="65" cy="5" r="5" fill="white" fill-opacity="0.1"/>
<circle cx="80" cy="5" r="5" fill="white" fill-opacity="0.1"/>
<circle cx="95" cy="5" r="5" fill="white" fill-opacity="0.1"/>
<circle cx="110" cy="5" r="5" fill="white" fill-opacity="0.1"/>
<circle cx="125" cy="5" r="5" fill="white" fill-opacity="0.1"/>
<circle cx="140" cy="5" r="5" fill="white" fill-opacity="0.1"/>
<circle cx="5" cy="20" r="5" fill="white" fill-opacity="0.1"/>
<circle cx="20" cy="20" r="5" fill="white" fill-opacity="0.1"/>
<circle cx="35" cy="20" r="5" fill="white" fill-opacity="0.1"/>
<circle cx="50" cy="20" r="5" fill="white" fill-opacity="0.1"/>
<circle cx="65" cy="20" r="5" fill="white" fill-opacity="0.1"/>
<circle cx="80" cy="20" r="5" fill="white" fill-opacity="0.1"/>
<circle cx="95" cy="20" r="5" fill="white" fill-opacity="0.1"/>
<circle cx="110" cy="20" r="5" fill="white" fill-opacity="0.1"/>
<circle cx="125" cy="20" r="5" fill="white" fill-opacity="0.1"/>
<circle cx="140" cy="20" r="5" fill="white" fill-opacity="0.1"/>
<circle cx="5" cy="35" r="5" fill="white" fill-opacity="0.1"/>
<circle cx="20" cy="35" r="5" fill="white" fill-opacity="0.1"/>
<circle cx="35" cy="35" r="5" fill="white" fill-opacity="0.1"/>
<circle cx="50" cy="35" r="5" fill="white" fill-opacity="0.1"/>
<circle cx="65" cy="35" r="5" fill="white" fill-opacity="0.1"/>
<circle cx="80" cy="35" r="5" fill="white" fill-opacity="0.1"/>
<circle cx="95" cy="35" r="5" fill="white" fill-opacity="0.1"/>
<circle cx="110" cy="35" r="5" fill="white" fill-opacity="0.1"/>
<circle cx="125" cy="35" r="5" fill="white" fill-opacity="0.1"/>
<circle cx="140" cy="35" r="5" fill="white" fill-opacity="0.1"/>
<circle cx="5" cy="50" r="5" fill="white" fill-opacity="0.1"/>
<circle cx="20" cy="50" r="5" fill="white" fill-opacity="0.1"/>
<circle cx="35" cy="50" r="5" fill="white" fill-opacity="0.1"/>
<circle cx="50" cy="50" r="5" fill="white" fill-opacity="0.1"/>
<circle cx="65" cy="50" r="5" fill="white" fill-opacity="0.1"/>
<circle cx="80" cy="50" r="5" fill="white" fill-opacity="0.1"/>
<circle cx="95" cy="50" r="5" fill="white" fill-opacity="0.1"/>
<circle cx="110" cy="50" r="5" fill="white" fill-opacity="0.1"/>
<circle cx="125" cy="50" r="5" fill="white" fill-opacity="0.1"/>
<circle cx="140" cy="50" r="5" fill="white" fill-opacity="0.1"/>
<circle cx="5" cy="65" r="5" fill="white" fill-opacity="0.1"/>
<circle cx="20" cy="65" r="5" fill="white" fill-opacity="0.1"/>
<circle cx="35" cy="65" r="5" fill="white" fill-opacity="0.1"/>
<circle cx="50" cy="65" r="5" fill="white" fill-opacity="0.1"/>
<circle cx="65" cy="65" r="5" fill="white" fill-opacity="0.1"/>
<circle cx="80" cy="65" r="5" fill="white" fill-opacity="0.1"/>
<circle cx="95" cy="65" r="5" fill="white" fill-opacity="0.1"/>
<circle cx="110" cy="65" r="5" fill="white" fill-opacity="0.1"/>
<circle cx="125" cy="65" r="5" fill="white" fill-opacity="0.1"/>
<circle cx="140" cy="65" r="5" fill="white" fill-opacity="0.1"/>
<circle cx="5" cy="80" r="5" fill="white" fill-opacity="0.1"/>
<circle cx="20" cy="80" r="5" fill="white" fill-opacity="0.1"/>
<circle cx="35" cy="80" r="5" fill="white" fill-opacity="0.1"/>
<circle cx="50" cy="80" r="5" fill="white" fill-opacity="0.1"/>
<circle cx="65" cy="80" r="5" fill="white" fill-opacity="0.1"/>
<circle cx="80" cy="80" r="5" fill="white" fill-opacity="0.1"/>
<circle cx="95" cy="80" r="5" fill="white" fill-opacity="0.1"/>
<circle cx="110" cy="80" r="5" fill="white" fill-opacity="0.1"/>
<circle cx="125" cy="80" r="5" fill="white" fill-opacity="0.1"/>
<circle cx="140" cy="80" r="5" fill="white" fill-opacity="0.1"/>
<circle cx="5" cy="95" r="5" fill="white" fill-opacity="0.1"/>
<circle cx="20" cy="95" r="5" fill="white" fill-opacity="0.1"/>
<circle cx="35" cy="95" r="5" fill="white" fill-opacity="0.1"/>
<circle cx="50" cy="95" r="5" fill="white" fill-opacity="0.1"/>
<circle cx="65" cy="95" r="5" fill="white" fill-opacity="0.1"/>
<circle cx="80" cy="95" r="5" fill="white" fill-opacity="0.1"/>
<circle cx="95" cy="95" r="5" fill="white" fill-opacity="0.1"/>
<circle cx="110" cy="95" r="5" fill="white" fill-opacity="0.1"/>
<circle cx="125" cy="95" r="5" fill="white" fill-opacity="0.1"/>
<circle cx="140" cy="95" r="5" fill="white" fill-opacity="0.1"/>
<circle cx="5" cy="110" r="5" fill="white" fill-opacity="0.1"/>
<circle cx="20" cy="110" r="5" fill="white" fill-opacity="0.1"/>
<circle cx="35" cy="110" r="5" fill="white" fill-opacity="0.1"/>
<circle cx="50" cy="110" r="5" fill="white" fill-opacity="0.1"/>
<circle cx="65" cy="110" r="5" fill="white" fill-opacity="0.1"/>
<circle cx="80" cy="110" r="5" fill="white" fill-opacity="0.1"/>
<circle cx="95" cy="110" r="5" fill="white" fill-opacity="0.1"/>
<circle cx="110" cy="110" r="5" fill="white" fill-opacity="0.1"/>
<circle cx="125" cy="110" r="5" fill="white" fill-opacity="0.1"/>
<circle cx="140" cy="110" r="5" fill="white" fill-opacity="0.1"/>
<circle cx="5" cy="125" r="5" fill="white" fill-opacity="0.1"/>
<circle cx="20" cy="125" r="5" fill="white" fill-opacity="0.1"/>
<circle cx="35" cy="125" r="5" fill="white" fill-opacity="0.1"/>
<circle cx="50" cy="125" r="5" fill="white" fill-opacity="0.1"/>
<circle cx="65" cy="125" r="5" fill="white" fill-opacity="0.1"/>
<circle cx="80" cy="125" r="5" fill="white" fill-opacity="0.1"/>
<circle cx="95" cy="125" r="5" fill="white" fill-opacity="0.1"/>
<circle cx="110" cy="125" r="5" fill="white" fill-opacity="0.1"/>
<circle cx="125" cy="125" r="5" fill="white" fill-opacity="0.1"/>
<circle cx="140" cy="125" r="5" fill="white" fill-opacity="0.1"/>
<circle cx="5" cy="140" r="5" fill="white" fill-opacity="0.1"/>
<circle cx="20" cy="140" r="5" fill="white" fill-opacity="0.1"/>
<circle cx="35" cy="140" r="5" fill="white" fill-opacity="0.1"/>
<circle cx="50" cy="140" r="5" fill="white" fill-opacity="0.1"/>
<circle cx="65" cy="140" r="5" fill="white" fill-opacity="0.1"/>
<circle cx="80" cy="140" r="5" fill="white" fill-opacity="0.1"/>
<circle cx="95" cy="140" r="5" fill="white" fill-opacity="0.1"/>
<circle cx="110" cy="140" r="5" fill="white" fill-opacity="0.1"/>
<circle cx="125" cy="140" r="5" fill="white" fill-opacity="0.1"/>
<circle cx="140" cy="140" r="5" fill="white" fill-opacity="0.1"/>
</svg>
