<svg width="141" height="58" viewBox="0 0 141 58" fill="none" xmlns="http://www.w3.org/2000/svg">
<path d="M32.3632 29.9155C32.4824 24.1096 27.6733 19.612 24.22 18.4471C22.3322 17.8116 17.0119 16.2545 11.353 19.5839C3.61567 24.1546 4.87896 32.2041 4.87896 32.2041C4.87896 32.2041 5.19832 34.8253 5.98048 36.0372C5.98048 36.0372 7.46811 38.941 9.0348 40.2206C10.3742 41.3144 12.9883 42.2151 12.9883 42.2151C12.9883 42.2151 17.1111 43.8158 23.3031 41.6679C29.495 39.5201 32.2663 34.4775 32.3632 29.9155Z" fill="#FF006B"/>
<path d="M26.2163 20.8031C26.2163 20.8031 26.725 19.1105 28.7289 19.3969C30.49 19.6522 31.7046 22.128 31.3602 23.382C31.0157 24.6359 29.7286 25.3231 29.7286 25.3231L26.2163 20.8031V20.8031Z" fill="white"/>
<path d="M22.5918 2.51915C23.0763 2.51661 24.2084 5.58347 26.4377 4.88132C28.0862 4.36059 27.496 2.03469 25.2263 1.10576C23.1936 0.273119 22.0078 0.8261 20.8866 1.37832C19.2321 2.19065 17.7205 4.27994 17.1322 6.58911C16.5438 8.89827 15.8595 11.7935 15.8105 15.109C15.7615 18.4827 16.0178 18.5768 16.0178 18.5768L17.6467 18.5172C17.6467 18.5172 17.2529 17.7144 17.4471 14.0207C17.556 11.9333 18.0972 9.26092 18.6312 7.27462C19.2359 5.05413 20.7109 2.52286 22.5918 2.51915V2.51915Z" fill="#FF006B"/>
<path d="M9.20907 6.2673C9.64104 6.14136 10.9314 7.56137 12.4005 6.47887C13.7023 5.51855 12.8131 3.52352 10.7215 3.55083C9.38486 3.56473 7.82496 4.70264 7.10064 5.62416C5.98725 7.05471 5.29313 9.28521 5.11974 11.4897C4.93507 13.7666 5.21992 15.8487 6.47817 18.7722C7.83025 21.8984 9.1495 23.1148 9.1495 23.1148L10.2629 21.6842C10.2629 21.6842 9.26017 20.5811 8.0399 18.1124C7.15294 16.3111 6.51837 14.2811 6.69293 11.7984C6.86198 9.49744 7.97486 6.61883 9.20907 6.2673V6.2673Z" fill="#FF006B"/>
<path d="M21.846 24.3244C22.9775 25.8268 23.5482 28.6139 21.2598 29.9433C18.6374 31.4652 16.7111 29.6768 15.9031 28.1769C15.1349 26.7437 14.7539 24.2069 16.7892 23.0998C18.9224 21.943 20.7231 22.8404 21.846 24.3244Z" fill="white"/>
<path d="M30.0423 31.4166C30.0537 32.2686 30.1967 32.7957 30.7121 33.0677C31.3516 33.4098 31.8012 33.1526 31.8012 33.1526C31.8012 33.1526 32.5241 32.2765 32.5391 30.678C32.5497 29.7911 32.2655 28.5235 32.2655 28.5235C32.2655 28.5235 30.0247 29.8734 30.0423 31.4166V31.4166Z" fill="white"/>
<rect x="20.616" y="39" width="5" height="4" fill="white"/>
<path d="M11.592 48.024H5.304L4.296 51H0L6.096 34.152H10.848L16.944 51H12.6L11.592 48.024ZM10.536 44.856L8.448 38.688L6.384 44.856H10.536Z" fill="white"/>
<path d="M33.8713 51H29.7673L22.9033 40.608V51H18.7993V34.152H22.9033L29.7673 44.592V34.152H33.8713V51Z" fill="white"/>
<path d="M48.9662 34.152V37.44H44.5022V51H40.3982V37.44H35.9342V34.152H48.9662Z" fill="white"/>
<path d="M68.9518 39.576C68.9518 40.552 68.7278 41.448 68.2798 42.264C67.8318 43.064 67.1438 43.712 66.2158 44.208C65.2878 44.704 64.1358 44.952 62.7598 44.952H60.2158V51H56.1118V34.152H62.7598C64.1038 34.152 65.2398 34.384 66.1678 34.848C67.0958 35.312 67.7918 35.952 68.2558 36.768C68.7198 37.584 68.9518 38.52 68.9518 39.576ZM62.4478 41.688C63.2318 41.688 63.8158 41.504 64.1998 41.136C64.5838 40.768 64.7758 40.248 64.7758 39.576C64.7758 38.904 64.5838 38.384 64.1998 38.016C63.8158 37.648 63.2318 37.464 62.4478 37.464H60.2158V41.688H62.4478Z" fill="white"/>
<path d="M75.1924 39.84C75.6724 39.104 76.2724 38.528 76.9924 38.112C77.7124 37.68 78.5124 37.464 79.3924 37.464V41.808H78.2644C77.2404 41.808 76.4724 42.032 75.9604 42.48C75.4484 42.912 75.1924 43.68 75.1924 44.784V51H71.0884V37.608H75.1924V39.84Z" fill="white"/>
<path d="M87.45 51.192C86.138 51.192 84.954 50.912 83.898 50.352C82.858 49.792 82.034 48.992 81.426 47.952C80.834 46.912 80.538 45.696 80.538 44.304C80.538 42.928 80.842 41.72 81.45 40.68C82.058 39.624 82.89 38.816 83.946 38.256C85.002 37.696 86.186 37.416 87.498 37.416C88.81 37.416 89.994 37.696 91.05 38.256C92.106 38.816 92.938 39.624 93.546 40.68C94.154 41.72 94.458 42.928 94.458 44.304C94.458 45.68 94.146 46.896 93.522 47.952C92.914 48.992 92.074 49.792 91.002 50.352C89.946 50.912 88.762 51.192 87.45 51.192ZM87.45 47.64C88.234 47.64 88.898 47.352 89.442 46.776C90.002 46.2 90.282 45.376 90.282 44.304C90.282 43.232 90.01 42.408 89.466 41.832C88.938 41.256 88.282 40.968 87.498 40.968C86.698 40.968 86.034 41.256 85.506 41.832C84.978 42.392 84.714 43.216 84.714 44.304C84.714 45.376 84.97 46.2 85.482 46.776C86.01 47.352 86.666 47.64 87.45 47.64Z" fill="white"/>
<path d="M100.739 52.728C100.739 54.376 100.323 55.56 99.4912 56.28C98.6592 57.016 97.4992 57.384 96.0112 57.384H94.4032V53.904H95.3872C95.8352 53.904 96.1552 53.816 96.3472 53.64C96.5392 53.464 96.6352 53.176 96.6352 52.776V37.608H100.739V52.728Z" fill="white"/>
<path d="M116.314 44.088C116.314 44.472 116.29 44.872 116.242 45.288H106.954C107.018 46.12 107.282 46.76 107.746 47.208C108.226 47.64 108.81 47.856 109.498 47.856C110.522 47.856 111.234 47.424 111.634 46.56H116.002C115.778 47.44 115.37 48.232 114.778 48.936C114.202 49.64 113.474 50.192 112.594 50.592C111.714 50.992 110.73 51.192 109.642 51.192C108.33 51.192 107.162 50.912 106.138 50.352C105.114 49.792 104.314 48.992 103.738 47.952C103.162 46.912 102.874 45.696 102.874 44.304C102.874 42.912 103.154 41.696 103.714 40.656C104.29 39.616 105.09 38.816 106.114 38.256C107.138 37.696 108.314 37.416 109.642 37.416C110.938 37.416 112.09 37.688 113.098 38.232C114.106 38.776 114.89 39.552 115.45 40.56C116.026 41.568 116.314 42.744 116.314 44.088ZM112.114 43.008C112.114 42.304 111.874 41.744 111.394 41.328C110.914 40.912 110.314 40.704 109.594 40.704C108.906 40.704 108.322 40.904 107.842 41.304C107.378 41.704 107.09 42.272 106.978 43.008H112.114Z" fill="white"/>
<path d="M117.663 44.304C117.663 42.912 117.943 41.696 118.503 40.656C119.079 39.616 119.871 38.816 120.879 38.256C121.903 37.696 123.071 37.416 124.383 37.416C126.063 37.416 127.463 37.856 128.583 38.736C129.719 39.616 130.463 40.856 130.815 42.456H126.447C126.079 41.432 125.367 40.92 124.311 40.92C123.559 40.92 122.959 41.216 122.511 41.808C122.063 42.384 121.839 43.216 121.839 44.304C121.839 45.392 122.063 46.232 122.511 46.824C122.959 47.4 123.559 47.688 124.311 47.688C125.367 47.688 126.079 47.176 126.447 46.152H130.815C130.463 47.72 129.719 48.952 128.583 49.848C127.447 50.744 126.047 51.192 124.383 51.192C123.071 51.192 121.903 50.912 120.879 50.352C119.871 49.792 119.079 48.992 118.503 47.952C117.943 46.912 117.663 45.696 117.663 44.304Z" fill="white"/>
<path d="M140.474 47.52V51H138.386C136.898 51 135.738 50.64 134.906 49.92C134.074 49.184 133.658 47.992 133.658 46.344V41.016H132.026V37.608H133.658V34.344H137.762V37.608H140.45V41.016H137.762V46.392C137.762 46.792 137.858 47.08 138.05 47.256C138.242 47.432 138.562 47.52 139.01 47.52H140.474Z" fill="white"/>
<path d="M96.672 34.816C97.136 35.232 97.728 35.44 98.448 35.44C99.152 35.44 99.728 35.232 100.176 34.816C100.64 34.384 100.872 33.856 100.872 33.232C100.872 32.592 100.64 32.064 100.176 31.648C99.728 31.216 99.152 31 98.448 31C97.728 31 97.136 31.216 96.672 31.648C96.224 32.064 96 32.592 96 33.232C96 33.856 96.224 34.384 96.672 34.816Z" fill="#FF006B"/>
</svg>
