<svg width="36" height="36" viewBox="0 0 36 36" fill="none" xmlns="http://www.w3.org/2000/svg">
<path d="M18 2.25C13.8228 2.25 9.81677 3.90937 6.86307 6.86307C3.90937 9.81677 2.25 13.8228 2.25 18C2.25 22.1772 3.90937 26.1832 6.86307 29.1369C9.81677 32.0906 13.8228 33.75 18 33.75C22.1772 33.75 26.1832 32.0906 29.1369 29.1369C32.0906 26.1832 33.75 22.1772 33.75 18C33.75 13.8228 32.0906 9.81677 29.1369 6.86307C26.1832 3.90937 22.1772 2.25 18 2.25V2.25ZM18 31.5V4.5C19.7728 4.5 21.5283 4.84919 23.1662 5.52763C24.8041 6.20606 26.2924 7.20047 27.5459 8.45406C28.7995 9.70765 29.7939 11.1959 30.4724 12.8338C31.1508 14.4717 31.5 16.2272 31.5 18C31.5 19.7728 31.1508 21.5283 30.4724 23.1662C29.7939 24.8041 28.7995 26.2924 27.5459 27.5459C26.2924 28.7995 24.8041 29.7939 23.1662 30.4724C21.5283 31.1508 19.7728 31.5 18 31.5V31.5Z" fill="white"/>
</svg>
