<svg width="46" height="45" viewBox="0 0 46 45" fill="none" xmlns="http://www.w3.org/2000/svg">
<path d="M33.06 27C33.24 25.515 33.375 24.03 33.375 22.5C33.375 20.97 33.24 19.485 33.06 18H40.665C41.025 19.44 41.25 20.9475 41.25 22.5C41.25 24.0525 41.025 25.56 40.665 27H33.06ZM29.0775 39.51C30.4275 37.0125 31.4625 34.3125 32.1825 31.5H38.82C36.6401 35.2536 33.1818 38.097 29.0775 39.51ZM28.515 27H17.985C17.76 25.515 17.625 24.03 17.625 22.5C17.625 20.97 17.76 19.4625 17.985 18H28.515C28.7175 19.4625 28.875 20.97 28.875 22.5C28.875 24.03 28.7175 25.515 28.515 27ZM23.25 40.41C21.3825 37.71 19.875 34.7175 18.9525 31.5H27.5475C26.625 34.7175 25.1175 37.71 23.25 40.41ZM14.25 13.5H7.68C9.83743 9.73623 13.2933 6.88834 17.4 5.49C16.05 7.9875 15.0375 10.6875 14.25 13.5ZM7.68 31.5H14.25C15.0375 34.3125 16.05 37.0125 17.4 39.51C13.3019 38.0962 9.8509 35.2524 7.68 31.5ZM5.835 27C5.475 25.56 5.25 24.0525 5.25 22.5C5.25 20.9475 5.475 19.44 5.835 18H13.44C13.26 19.485 13.125 20.97 13.125 22.5C13.125 24.03 13.26 25.515 13.44 27H5.835ZM23.25 4.5675C25.1175 7.2675 26.625 10.2825 27.5475 13.5H18.9525C19.875 10.2825 21.3825 7.2675 23.25 4.5675ZM38.82 13.5H32.1825C31.4783 10.7133 30.4355 8.02327 29.0775 5.49C33.2175 6.9075 36.66 9.765 38.82 13.5ZM23.25 0C10.8075 0 0.75 10.125 0.75 22.5C0.75 28.4674 3.12053 34.1903 7.3401 38.4099C9.42942 40.4992 11.9098 42.1566 14.6396 43.2873C17.3694 44.418 20.2953 45 23.25 45C29.2174 45 34.9403 42.6295 39.1599 38.4099C43.3795 34.1903 45.75 28.4674 45.75 22.5C45.75 19.5453 45.168 16.6194 44.0373 13.8896C42.9066 11.1598 41.2492 8.67942 39.1599 6.5901C37.0706 4.50078 34.5902 2.84344 31.8604 1.71271C29.1306 0.58198 26.2047 0 23.25 0Z" fill="white"/>
</svg>
