<svg width="813" height="638" viewBox="0 0 813 638" fill="none" xmlns="http://www.w3.org/2000/svg">
<path opacity="0.24" d="M93.2131 172.471C68.8348 224.894 31.2237 271.168 11.5768 325.439C-8.07001 379.709 -4.22414 449.151 42.521 484.075C91.9607 521.01 164.4 503.549 221.683 527.236C266.29 545.685 296.893 587.061 339.336 609.901C360.426 621.289 383.918 627.704 407.651 631.753C531.339 652.872 659.999 608.344 759.6 533.385C774.148 522.44 788.444 510.609 798.147 495.324C822.905 456.339 812.227 405.168 793.605 363.007C774.983 320.845 748.973 280.367 744.355 234.637C740.003 191.439 754.236 142.913 728.655 107.483C700.09 67.9156 639.72 69.7503 592.026 82.7454C544.332 95.7405 493.652 115.644 447.426 98.4737C376.796 72.1798 324.497 -2.31109 239.913 0.0551009C150.737 2.56048 122.867 108.672 93.2131 172.471Z" fill="url(#paint0_linear)"/>
<path d="M414.99 189.882C415.316 194.841 414.143 199.783 411.625 204.067C406.362 213.582 395.596 220.643 384.704 223.464C368.814 227.526 352.052 225.54 335.795 227.716C320.635 229.766 306.19 235.434 293.68 244.241C280.157 253.807 265.848 267.752 249.807 263.222C236.182 259.426 229.857 240.268 238.548 229.057C217.129 226.536 195.421 229.443 175.42 237.51C167.424 240.736 159.581 244.849 150.991 245.406C142.401 245.962 132.698 241.761 130.395 233.486C127.764 224.16 135.569 214.873 144.311 210.583C148.818 208.523 153.469 206.794 158.227 205.408C162.734 204.021 167.071 202.132 171.156 199.777C173.228 198.493 175.095 196.907 176.697 195.07C181.758 189.389 184.288 181.493 180.341 175.293C178.162 172.17 175.068 169.8 171.485 168.51C160.302 164.031 147.512 166.106 135.873 163.006C124.234 159.906 113.342 146.557 120.034 136.434C125.955 127.665 138.188 127.944 151.851 130.107C166.678 132.41 183.124 136.991 194.864 134.587C201.835 133.157 207.148 129.272 209.501 121.009C213.613 106.509 188.678 85.6684 210.286 74.4447C224.202 67.2449 239.471 86.3643 254.159 80.1768C264.545 75.786 266.026 61.9305 266.443 50.6563C266.861 39.382 270.238 25.3494 281.308 23.0844C289.442 21.4268 297.425 28.0698 300.284 35.877C301.197 38.3921 301.772 41.0175 301.992 43.6842C302.423 49.3216 302.249 54.9889 301.473 60.5892C301.056 64.7016 300.689 69.0417 302.485 72.6986C305.446 78.6963 311.86 79.949 318.464 78.4179C324.202 77.0421 329.452 74.1186 333.645 69.9654C342.222 61.2852 350.951 49.3276 363.147 50.5297C371.509 51.3522 376.683 57.9193 378.986 66.1441C380.883 73.0717 380.961 80.3718 379.213 87.3386C375.342 102.118 366.929 116.986 370.952 131.727C377.48 155.844 413.269 165.031 414.99 189.882Z" fill="url(#paint1_linear)"/>
<path d="M414.989 189.882C415.315 194.841 414.143 199.783 411.624 204.067C408.521 205.344 405.307 206.331 402.022 207.015C386.132 210.343 369.37 208.723 353.114 210.482C338.301 212.05 323.967 216.641 310.999 223.971C297.462 231.727 283.167 243.09 267.176 239.484C253.551 236.396 247.175 220.782 255.79 211.646C234.502 209.571 213.015 211.915 192.675 218.53C184.73 221.162 176.836 224.489 168.246 224.945C159.656 225.4 150.231 228.969 147.916 222.262C145.664 215.758 151.015 209.331 158.037 205.459C159.241 204.725 160.511 204.106 161.832 203.611C167.051 201.23 172.029 198.353 176.697 195.019C180.5 192.371 184.453 189.946 188.538 187.756C196.761 183.606 202.808 174.496 197.685 167.802C195.698 165.17 192.333 163.411 188.829 162.26C177.608 158.616 164.868 160.324 153.229 157.78C141.59 155.237 130.647 144.38 137.34 136.269C140.528 132.398 145.651 130.689 151.838 130.272C166.665 132.575 183.111 137.155 194.851 134.751C209.855 136.371 222.797 135.346 226.858 123.705C230.918 112.063 205.984 94.9813 227.591 85.8328C241.507 79.9743 256.828 95.538 271.465 90.502C281.902 86.8957 283.331 75.6342 283.799 66.4604C284.267 57.2866 287.569 45.7214 298.601 43.9246C299.73 43.7406 300.877 43.6939 302.017 43.7854C302.432 49.3901 302.249 55.0231 301.473 60.5892C301.055 64.7016 300.688 69.0417 302.485 72.6986C305.445 78.6963 311.859 79.949 318.463 78.4179C318.363 80.4671 318.846 82.5026 319.854 84.2891C325.256 93.1465 342.386 89.1354 350.976 82.0242C359.199 75.2419 367.51 66.0049 378.959 66.1441C380.857 73.0717 380.935 80.3718 379.187 87.3386C375.316 102.118 366.903 116.986 370.926 131.727C377.479 155.844 413.269 165.031 414.989 189.882Z" fill="url(#paint2_linear)"/>
<path d="M215.522 48.2774C212.094 45.4051 208.982 41.2927 209.652 36.8893C209.831 35.666 210.293 34.5014 211.001 33.4881C211.71 32.4747 212.644 31.6407 213.732 31.0522C214.819 30.4637 216.028 30.137 217.263 30.0982C218.499 30.0593 219.726 30.3093 220.848 30.8283C224.909 32.6883 226.68 37.6232 226.693 42.1025C226.693 44.4687 226.87 51.7571 224.315 52.9339C221.759 54.1106 217.23 49.7072 215.522 48.2774Z" fill="url(#paint3_linear)"/>
<path d="M124.018 176.761C122.427 177.446 121.171 178.733 120.526 180.341C117.996 185.403 118.426 192.438 122.993 195.791C130.053 200.967 143.235 199.752 144.234 189.465C145.107 180.797 131.419 174.369 124.018 176.761Z" fill="url(#paint4_linear)"/>
<path d="M186.147 38.104C185.856 35.7758 183.807 34.1182 181.909 32.7263C178.62 30.3095 174.028 27.8674 170.802 30.3854C168.626 32.081 168.373 35.4468 169.461 37.9775C170.742 40.4498 172.552 42.6098 174.761 44.3042C176.283 45.8724 178.144 47.0713 180.201 47.8092C182.314 48.366 184.92 47.6953 185.856 45.7341C186.792 43.7728 186.375 40.5968 188.513 40.2045" fill="url(#paint5_linear)"/>
<path d="M128.434 95.867C127.846 95.2517 127.107 94.8004 126.29 94.5579C125.474 94.3154 124.609 94.29 123.78 94.4842C122.951 94.6784 122.187 95.0855 121.563 95.6653C120.94 96.2451 120.478 96.9776 120.224 97.7904C119.49 100.068 120.515 102.561 121.982 104.446C122.943 105.844 124.391 106.833 126.043 107.217C128.928 107.635 131.496 104.94 132.128 102.156C132.527 100.613 132.342 98.9774 131.61 97.5626C131.249 96.878 130.7 96.3113 130.028 95.93C129.355 95.5486 128.586 95.3686 127.814 95.4115" fill="url(#paint6_linear)"/>
<path d="M184.919 61.7787C184.52 61.3666 184.022 61.0643 183.472 60.9009C182.922 60.7375 182.339 60.7184 181.78 60.8455C181.221 60.9727 180.704 61.2417 180.278 61.6268C179.853 62.0118 179.534 62.4999 179.353 63.044C179.173 63.84 179.189 64.6677 179.398 65.4565C179.607 66.2453 180.004 66.9717 180.555 67.5739C181.206 68.5308 182.196 69.2047 183.325 69.4593C185.286 69.7503 187.032 67.9156 187.462 65.9796C187.741 64.9303 187.615 63.8143 187.108 62.8542C186.85 62.3846 186.462 61.9996 185.991 61.7459C185.519 61.4921 184.985 61.3805 184.451 61.4244" fill="url(#paint7_linear)"/>
<path opacity="0.24" d="M303.485 475.85C345.043 473.231 393.028 476.255 418.608 509.141C428.552 521.934 433.865 538.067 445.011 549.835C466.808 572.89 502.99 572.421 534.643 570.283C567.914 568.043 604.438 564.361 627.589 540.345C658.292 508.496 654.712 451.176 691.058 425.958C705.67 415.835 724.065 413.152 740.27 405.851C756.476 398.55 771.898 382.822 768.507 365.36C764.788 346.114 741.94 338.219 722.774 334.372C584.517 306.81 442.372 304.892 303.422 328.716C267.443 334.903 230.198 343.546 202.215 366.993C179.519 385.973 153.078 434.246 178.861 460.008C205.289 486.454 270.858 477.913 303.485 475.85Z" fill="url(#paint8_linear)"/>
<path d="M272.768 286.997C510.605 230.323 629.08 347.38 640.264 431.639C649.613 502.043 615.822 600.069 491.173 568.828C397 545.216 477.51 473.636 396.013 456.743C334.896 444.09 213.157 458.743 162.11 429.311C156.632 426.147 34.9686 343.66 272.768 286.997Z" fill="url(#paint9_linear)"/>
<path d="M272.768 286.997C510.605 230.323 629.081 347.38 640.264 431.639C649.614 502.043 615.823 600.069 491.174 568.828C397 545.216 477.511 473.636 396.013 456.743C334.024 443.875 209.514 459.173 159.884 427.97C155.355 425.122 34.9692 343.66 272.768 286.997Z" fill="url(#paint10_linear)"/>
<path d="M148.27 397.335C148.27 397.335 34.9685 322.781 272.768 266.119C510.567 209.457 629.08 326.514 640.264 410.761C649.613 481.165 615.822 579.204 491.173 547.949C397 524.338 477.51 452.758 396.013 435.865C328.33 421.833 186.299 441.332 148.27 397.335Z" fill="url(#paint11_linear)"/>
<path d="M276.678 320.921C276.835 323.562 276.172 326.188 274.78 328.437C269.644 337.763 254.121 345.229 235.385 346.342C215.738 347.607 198.697 341.42 193.232 332.044C192.123 330.25 191.467 328.213 191.322 326.109C190.588 313.456 209.033 302.068 232.627 300.688C256.221 299.309 275.893 308.318 276.678 320.921Z" fill="url(#paint12_linear)"/>
<path d="M407.841 291.097C407.993 293.757 407.345 296.401 405.981 298.689C400.794 308.015 385.335 315.417 366.586 316.531C346.952 317.796 329.898 311.608 324.446 302.232C323.307 300.457 322.649 298.416 322.536 296.31C321.789 283.657 340.247 272.269 363.79 270.877C387.333 269.485 407.094 278.494 407.841 291.097Z" fill="url(#paint13_linear)"/>
<path d="M376.075 350.733C376.22 353.379 375.554 356.006 374.165 358.262C369.028 367.575 353.518 375.04 334.77 376.154C315.123 377.419 298.082 371.231 292.617 361.855C291.5 360.066 290.847 358.026 290.719 355.921C289.973 343.267 308.43 331.879 332.012 330.5C355.593 329.121 375.278 338.13 376.075 350.733Z" fill="url(#paint14_linear)"/>
<path d="M519.195 323.401C519.348 326.048 518.681 328.677 517.285 330.93C512.148 340.243 496.638 347.721 477.89 348.835C458.255 350.1 441.202 343.9 435.75 334.524C434.633 332.738 433.976 330.704 433.839 328.602C433.093 315.949 451.55 304.56 475.144 303.181C498.738 301.802 518.398 310.799 519.195 323.401Z" fill="url(#paint15_linear)"/>
<path d="M607.144 379.33C607.306 381.989 606.662 384.635 605.297 386.922C600.11 396.235 584.587 403.713 565.851 404.814C546.154 406.079 529.163 399.892 523.698 390.465C522.604 388.691 521.965 386.674 521.839 384.593C521.054 371.94 539.55 360.552 563.093 359.173C586.636 357.793 606.347 366.727 607.144 379.33Z" fill="url(#paint16_linear)"/>
<path d="M568.065 453.163C568.211 455.796 567.568 458.413 566.218 460.679C561.082 470.004 545.56 477.47 526.823 478.583C507.126 479.849 490.073 473.661 484.62 464.234C483.524 462.457 482.885 460.435 482.76 458.35C481.976 445.697 500.472 434.309 524.015 432.93C547.558 431.551 567.281 440.56 568.065 453.163Z" fill="url(#paint17_linear)"/>
<path d="M487.379 383.037C487.524 385.683 486.858 388.31 485.468 390.566C480.332 399.879 464.822 407.357 446.124 408.458C426.427 409.723 409.373 403.536 403.921 394.109C402.823 392.337 402.188 390.319 402.074 388.238C401.277 375.584 419.785 364.297 443.316 362.817C466.846 361.337 486.582 370.434 487.379 383.037Z" fill="url(#paint18_linear)"/>
<path d="M274.779 328.438C269.643 337.763 254.12 345.229 235.384 346.342C215.737 347.607 198.697 341.42 193.231 332.044C198.368 322.718 213.878 315.253 232.626 314.139C252.273 312.924 269.263 319.061 274.779 328.438Z" fill="url(#paint19_linear)"/>
<path d="M405.982 298.626C400.796 307.952 385.336 315.354 366.587 316.467C346.953 317.733 329.9 311.545 324.447 302.169C329.584 292.856 345.043 285.378 363.792 284.277C383.489 283.1 400.479 289.25 405.982 298.626Z" fill="url(#paint20_linear)"/>
<path d="M374.165 358.262C369.029 367.575 353.519 375.04 334.77 376.154C315.123 377.419 298.082 371.231 292.617 361.855C297.753 352.542 313.276 345.064 332.012 343.951C351.659 342.761 368.662 348.885 374.165 358.262Z" fill="url(#paint21_linear)"/>
<path d="M517.285 330.93C512.149 340.243 496.639 347.721 477.89 348.835C458.256 350.1 441.203 343.9 435.75 334.524C440.886 325.211 456.396 317.745 475.145 316.632C494.792 315.404 511.782 321.554 517.285 330.93Z" fill="url(#paint22_linear)"/>
<path d="M605.298 386.858C600.111 396.171 584.588 403.65 565.852 404.75C546.155 406.016 529.164 399.828 523.699 390.401C528.835 381.088 544.346 373.674 563.094 372.497C582.792 371.282 599.782 377.432 605.298 386.858Z" fill="url(#paint23_linear)"/>
<path d="M566.167 460.679C561.03 470.004 545.508 477.47 526.772 478.583C507.074 479.849 490.021 473.661 484.568 464.234C489.705 454.909 505.215 447.443 523.963 446.33C543.661 445.115 560.714 451.252 566.167 460.679Z" fill="url(#paint24_linear)"/>
<path d="M485.468 390.566C480.331 399.879 464.821 407.357 446.123 408.458C426.426 409.723 409.372 403.536 403.92 394.109C409.107 384.796 424.579 377.381 443.315 376.268C462.962 375.04 479.965 381.19 485.468 390.566Z" fill="url(#paint25_linear)"/>
<path d="M274.779 328.438C269.643 337.763 254.12 345.229 235.384 346.342C215.737 347.607 198.697 341.42 193.231 332.044C198.368 322.718 213.878 315.253 232.626 314.139C252.273 312.924 269.263 319.061 274.779 328.438Z" fill="url(#paint26_linear)"/>
<path d="M405.982 298.626C400.796 307.952 385.336 315.354 366.587 316.467C346.953 317.733 329.9 311.545 324.447 302.169C329.584 292.856 345.043 285.378 363.792 284.277C383.489 283.1 400.479 289.25 405.982 298.626Z" fill="url(#paint27_linear)"/>
<path d="M374.165 358.262C369.029 367.575 353.519 375.04 334.77 376.154C315.123 377.419 298.082 371.231 292.617 361.855C297.753 352.542 313.276 345.064 332.012 343.951C351.659 342.761 368.662 348.885 374.165 358.262Z" fill="url(#paint28_linear)"/>
<path d="M517.285 330.93C512.149 340.243 496.639 347.721 477.89 348.835C458.256 350.1 441.203 343.9 435.75 334.524C440.886 325.211 456.396 317.745 475.145 316.632C494.792 315.404 511.782 321.554 517.285 330.93Z" fill="url(#paint29_linear)"/>
<path d="M605.298 386.858C600.111 396.171 584.588 403.65 565.852 404.75C546.155 406.016 529.164 399.828 523.699 390.401C528.835 381.088 544.346 373.674 563.094 372.497C582.792 371.282 599.782 377.432 605.298 386.858Z" fill="url(#paint30_linear)"/>
<path d="M566.167 460.679C561.03 470.004 545.508 477.47 526.772 478.583C507.074 479.849 490.021 473.661 484.568 464.234C489.705 454.909 505.215 447.443 523.963 446.33C543.661 445.115 560.714 451.252 566.167 460.679Z" fill="url(#paint31_linear)"/>
<path d="M485.468 390.566C480.331 399.879 464.821 407.357 446.123 408.458C426.426 409.723 409.372 403.536 403.92 394.109C409.107 384.796 424.579 377.381 443.315 376.268C462.962 375.04 479.965 381.19 485.468 390.566Z" fill="url(#paint32_linear)"/>
<path d="M651.624 177.102C651.624 177.102 644.438 171.965 643.173 170.155C641.908 168.346 646.387 162.88 645.071 161.69C643.755 160.501 638.885 158.008 639.365 155.629C639.846 153.25 647.943 158.717 651.624 161.45C655.305 164.183 658.645 171.459 658.645 171.459C658.645 171.459 657.696 178.469 651.624 177.102Z" fill="#C58067"/>
<path d="M599.377 204.611L753.3 90.6411L807.408 49.8591C807.408 49.8591 810.014 41.4066 802.209 42.0519C794.403 42.6972 533.491 217.619 533.491 217.619L514.426 234.068L534.364 256.604L599.377 204.611Z" fill="url(#paint33_linear)"/>
<path d="M599.377 204.611L753.3 90.6411L807.408 49.8591C807.408 49.8591 810.014 41.4066 802.209 42.0519C794.403 42.6972 533.491 217.619 533.491 217.619L514.426 234.068L534.364 256.604L599.377 204.611Z" fill="url(#paint34_linear)"/>
<path d="M725.645 145.127C725.645 145.127 739.561 140.888 741.003 142.293C742.445 143.697 730.035 231.677 729.402 235.435C728.77 239.193 708.086 237.965 699.306 235.435C693.459 233.674 687.791 231.365 682.379 228.538C682.379 228.538 692.5 148.164 694.359 146.911C696.219 145.658 709.869 144.558 709.869 144.558L725.645 145.127Z" fill="url(#paint35_linear)"/>
<path d="M696.244 146.089C694.068 146.848 692.124 148.155 690.601 149.885C688.729 152.415 673.674 182.505 675.559 188.769C677.444 195.032 683.934 199.625 685.819 198.373C687.704 197.12 691.234 185.631 691.854 183.125C692.474 180.62 693.701 172.357 693.701 172.357L696.244 146.089Z" fill="url(#paint36_linear)"/>
<path d="M675.193 358.388C675.193 358.388 672.536 368.384 671.297 369.118C670.057 369.852 665.717 367.549 663.2 365.727C660.682 363.905 661.581 360.021 661.581 360.021L662.681 356.971L675.193 358.388Z" fill="#C58067"/>
<path d="M741.8 353.555C741.8 353.555 746.645 367.17 746.152 368.524C745.658 369.877 739.826 367.904 736.664 368.106C733.501 368.308 732.375 363.5 732.375 363.5L731.262 360.476L741.8 353.555Z" fill="#C58067"/>
<path d="M726.898 137.598C726.898 137.598 725.013 145.747 725.633 148.885C726.253 152.023 721.243 160.805 714.968 160.805C708.693 160.805 708.643 150.138 708.643 148.885C708.643 147.632 710.528 147.012 709.908 143.824C709.288 140.635 726.265 133.84 726.898 137.598Z" fill="#C58067"/>
<path d="M709.971 143.874C710.14 144.607 710.136 145.369 709.961 146.1C709.785 146.831 709.442 147.512 708.959 148.088C710.335 149.467 712.175 150.283 714.121 150.378C717.916 150.378 723.52 147.24 726.038 141.597L726.164 141.28C726.518 139.218 726.898 137.598 726.898 137.598C726.265 133.84 709.338 140.736 709.971 143.874Z" fill="#B6765E"/>
<path d="M725.518 147.721C725.518 147.721 720.458 159.552 716.157 160.805C716.157 160.805 714.98 161.437 718.117 163.335C721.255 165.233 730.035 155.743 728.782 148.91C728.647 148.032 728.289 147.203 727.742 146.503C727.195 145.803 726.477 145.255 725.657 144.912L725.518 147.721Z" fill="white"/>
<path d="M709.97 145.127C709.97 145.127 708.578 153.832 712.095 159.83C712.095 159.83 710.59 162.057 709.337 162.057C708.085 162.057 704.947 154.528 706.2 148.885C706.934 145.595 709.337 144.229 709.97 145.127Z" fill="white"/>
<path d="M729.402 235.435L722.545 289.996L743.912 360.539C743.912 360.539 739.99 362.716 731.843 362.083L702.885 292.325L702.48 248.037L693.068 286.289L675.041 360.881C675.041 360.881 665.869 362.893 660.467 359.008L672.384 286.289L682.416 228.589L729.402 235.435Z" fill="#606161"/>
<path d="M706.201 119.415C706.201 119.415 704.936 135.713 706.201 140.103C707.466 144.494 711.261 148.265 714.981 148.265C718.7 148.265 724.393 145.127 726.898 139.483C729.403 133.84 730.693 120.035 730.035 118.15C729.377 116.264 725.62 110.343 715.613 111.254C708.706 111.886 706.201 116.897 706.201 119.415Z" fill="#C58067"/>
<path d="M729.275 127.45C729.087 127.739 728.836 127.982 728.541 128.162C728.247 128.341 727.916 128.453 727.573 128.488C727.229 128.523 726.883 128.481 726.558 128.365C726.233 128.249 725.938 128.062 725.695 127.817C725.236 127.282 724.905 126.65 724.728 125.968C724.55 125.286 724.53 124.572 724.67 123.882C724.847 122.477 725.315 121.123 725.404 119.719C725.432 119.56 725.427 119.398 725.39 119.241C725.353 119.085 725.284 118.937 725.189 118.808C725.063 118.704 724.917 118.628 724.76 118.584C724.603 118.541 724.439 118.531 724.278 118.555C722.38 118.555 720.154 119.352 718.838 117.998C718.041 117.201 717.813 115.796 716.751 115.467C715.878 115.151 714.954 115.746 714.132 116.176C712.156 117.181 709.873 117.398 707.743 116.783C707.517 116.743 707.301 116.659 707.108 116.535C706.915 116.412 706.748 116.251 706.617 116.062C706.478 115.735 706.438 115.374 706.503 115.024C706.638 113.898 707.014 112.815 707.606 111.847C708.198 110.88 708.991 110.052 709.932 109.419C711.535 108.465 713.318 107.853 715.169 107.622C717.299 107.242 719.449 106.992 721.609 106.875C722.761 106.722 723.934 106.87 725.012 107.306C726.017 107.958 726.921 108.755 727.694 109.672C728.959 110.811 730.49 111.621 731.489 113.012C732.248 114.139 733.905 114.113 734.487 116.808C734.981 119.225 735.31 121.667 735.752 124.097C736.195 126.526 735.158 129.032 734.652 131.448C733.602 136.396 733.602 136.396 731.805 138.092C730.725 139.019 729.52 139.79 728.225 140.382C727.773 140.687 727.218 140.801 726.682 140.698C726.176 140.521 725.973 139.661 726.479 139.433" fill="#606161"/>
<path d="M727.163 129.981C727.163 129.981 727.795 126.185 730.3 127.45C732.805 128.715 729.68 135.599 728.415 136.232C727.851 136.575 727.204 136.758 726.543 136.763" fill="#C58067"/>
<path d="M687.389 193.299L656.963 167.599C656.963 167.599 649.879 168.422 649.55 176.849C649.55 176.849 663.529 194.374 677.85 203.194C684.036 207.002 688.894 194.716 687.389 193.299Z" fill="url(#paint37_linear)"/>
<path d="M685.819 198.335L691.399 162.057L684.213 201.258L685.819 198.335Z" fill="url(#paint38_linear)"/>
<path d="M649.285 364.614C647.701 365.008 646.229 365.761 644.983 366.815C644.377 367.362 643.976 368.1 643.85 368.906C643.723 369.713 643.878 370.538 644.288 371.244C644.798 371.751 645.411 372.142 646.085 372.393C646.759 372.644 647.479 372.748 648.197 372.699C655.571 373.202 662.974 373.058 670.323 372.269C670.612 372.255 670.894 372.173 671.145 372.029C671.512 371.763 672.777 370.991 672.841 370.536L673.802 363.31C671.55 363.728 668.071 364.424 665.807 364.032C662.884 363.513 661.733 360.641 658.912 361.197C655.699 361.843 652.409 363.576 649.285 364.614Z" fill="url(#paint39_linear)"/>
<path d="M722.584 366.891C721 367.285 719.528 368.038 718.282 369.093C717.675 369.636 717.273 370.372 717.147 371.177C717.02 371.982 717.175 372.806 717.587 373.509C718.096 374.018 718.709 374.412 719.383 374.665C720.057 374.918 720.777 375.024 721.496 374.977C728.87 375.479 736.273 375.335 743.622 374.547C743.911 374.533 744.193 374.45 744.444 374.306C744.811 374.041 747.38 372.75 747.43 372.294C747.759 369.89 745.811 366.36 745.57 364.702C743.319 365.132 741.37 366.752 739.106 366.36C736.183 365.841 735.032 362.956 732.211 363.525C728.998 364.12 725.708 365.854 722.584 366.891Z" fill="url(#paint40_linear)"/>
<path d="M753.237 99.1063C753.983 96.3339 753.983 93.4135 753.237 90.6412C752.402 87.7817 750.946 85.1419 748.974 82.9099C747.003 82.2567 744.878 82.2257 742.889 82.8213C740.144 83.8969 744.015 88.8191 743.66 91.16C743.306 93.5008 741.054 86.9717 739.726 87.5411C738.398 88.1105 741.788 97.1071 744.318 98.2332" fill="#C58067"/>
<path d="M726.657 174.787C726.657 174.787 736.056 172.332 739.118 166.549C742.179 160.767 758.461 134.144 757.98 127.944C757.424 120.782 753.957 97.2589 753.957 97.2589C753.957 97.2589 753.578 95.3356 749.036 95.9176C744.494 96.4997 743.786 99.1063 743.786 99.1063L743.381 126.729L729.541 152.137C729.541 152.137 723.886 169.611 726.657 174.787Z" fill="url(#paint41_linear)"/>
<path d="M526.09 223.123C522.067 223.3 519.765 227.703 516.501 230.044C514.148 231.727 511.2 232.335 508.632 233.688C506.064 235.042 503.711 237.674 504.293 240.509C504.68 241.869 505.392 243.115 506.367 244.14L521.257 262.386C522.156 263.5 523.408 264.727 524.787 264.348C525.255 264.176 525.685 263.914 526.052 263.576L543.004 249.897C544.674 248.556 546.521 246.823 546.281 244.697C546.005 243.405 545.338 242.23 544.371 241.331C539.842 236.194 534.022 223.123 526.09 223.123Z" fill="url(#paint42_linear)"/>
<path d="M526.09 223.123C522.067 223.3 519.765 227.703 516.501 230.044C514.148 231.727 511.2 232.335 508.632 233.688C506.064 235.042 503.711 237.674 504.293 240.509C504.68 241.869 505.392 243.115 506.367 244.14L521.257 262.386C522.156 263.5 523.408 264.727 524.787 264.348C525.255 264.176 525.685 263.914 526.052 263.576L543.004 249.897C544.674 248.556 546.521 246.823 546.281 244.697C546.005 243.405 545.338 242.23 544.371 241.331C539.842 236.194 534.022 223.123 526.09 223.123Z" fill="url(#paint43_linear)"/>
<path d="M491.856 246.519C487.998 251.087 485.328 256.528 482.292 261.703C479.256 266.878 475.651 271.927 470.906 275.622C466.162 279.317 459.913 281.468 453.979 280.38L456.952 285.795C472.016 287.374 487.243 286.129 501.851 282.126C508.277 280.367 514.792 277.925 519.486 273.268C524.179 268.612 526.608 260.995 523.724 254.997C520.84 248.999 513.768 246.026 509.365 241.078C506.683 238.054 505.899 237.649 501.775 239.256C497.916 240.814 494.507 243.31 491.856 246.519Z" fill="white"/>
<path d="M479.509 270.637C479.527 270.405 479.495 270.173 479.417 269.955C479.338 269.737 479.214 269.538 479.054 269.371C478.37 268.84 477.46 269.548 476.827 270.118C473.032 273.547 467.541 273.749 462.506 274.23C457.471 274.711 451.753 276.141 449.45 280.645C448.185 283.024 448.185 285.821 448.261 288.491C448.261 292.881 448.363 297.348 450.007 301.46C450.526 302.726 451.74 304.206 453.031 303.662C453.362 303.458 453.647 303.185 453.865 302.862C454.083 302.539 454.23 302.173 454.296 301.789C455.055 299.398 455.561 296.804 457.218 294.918C459.748 292.046 464.075 291.818 467.896 291.338C474.213 290.576 480.313 288.553 485.834 285.39C487.226 284.581 488.782 283.265 488.365 281.696C487.947 280.127 485.607 279.696 483.95 280.228C482.292 280.759 480.711 281.835 479.028 281.493C479.104 279.785 478.598 278.089 478.725 276.432C478.813 274.433 479.648 272.661 479.509 270.637Z" fill="url(#paint44_linear)"/>
<path d="M479.509 270.637C479.527 270.405 479.495 270.173 479.417 269.955C479.338 269.737 479.214 269.538 479.054 269.371C478.37 268.84 477.46 269.548 476.827 270.118C473.032 273.547 467.541 273.749 462.506 274.23C457.471 274.711 451.753 276.141 449.45 280.645C448.185 283.024 448.185 285.821 448.261 288.491C448.261 292.881 448.363 297.348 450.007 301.46C450.526 302.726 451.74 304.206 453.031 303.662C453.362 303.458 453.647 303.185 453.865 302.862C454.083 302.539 454.23 302.173 454.296 301.789C455.055 299.398 455.561 296.804 457.218 294.918C459.748 292.046 464.075 291.818 467.896 291.338C474.213 290.576 480.313 288.553 485.834 285.39C487.226 284.581 488.782 283.265 488.365 281.696C487.947 280.127 485.607 279.696 483.95 280.228C482.292 280.759 480.711 281.835 479.028 281.493C479.104 279.785 478.598 278.089 478.725 276.432C478.813 274.433 479.648 272.661 479.509 270.637Z" fill="url(#paint45_linear)"/>
<path d="M456.319 283.29C458.138 281.558 460.29 280.215 462.645 279.342C466.25 277.872 470.045 276.918 473.917 276.508C475.071 276.498 476.206 276.216 477.231 275.685C477.48 275.582 477.707 275.431 477.898 275.241C478.088 275.05 478.24 274.824 478.343 274.575C478.447 274.325 478.5 274.058 478.5 273.789C478.5 273.519 478.447 273.252 478.344 273.003C478.241 272.753 478.09 272.527 477.9 272.336C477.709 272.145 477.483 271.994 477.234 271.89C476.985 271.787 476.718 271.734 476.448 271.733C476.179 271.733 475.912 271.786 475.662 271.889C474.767 272.197 473.916 272.622 473.132 273.155C469.628 275.04 465.478 275.141 461.544 275.685C457.61 276.229 453.384 277.735 451.423 281.189C450.158 283.505 450.032 286.251 450.032 288.971C449.867 292.55 450.243 296.133 451.145 299.6C451.309 300.119 451.651 300.739 452.195 300.688C452.482 300.62 452.732 300.443 452.891 300.195C455.193 297.323 453.03 294.703 453.03 291.565C453.025 288.487 454.203 285.525 456.319 283.29Z" fill="url(#paint46_linear)"/>
<path d="M456.092 307.078C454.081 307.964 453.562 310.52 453.334 312.697C452.953 316.148 452.931 319.629 453.271 323.085C453.275 323.838 453.434 324.582 453.736 325.272C454.039 325.962 454.479 326.583 455.029 327.096C455.568 327.443 456.188 327.643 456.827 327.674C457.467 327.705 458.104 327.567 458.673 327.273C459.814 326.668 460.739 325.721 461.317 324.566C463.493 320.618 461.76 317.543 461.203 313.544C460.861 311.191 459.748 305.471 456.092 307.078Z" fill="url(#paint47_linear)"/>
<path d="M449.071 307.8C448.524 307.939 448.016 308.204 447.588 308.573C447.16 308.942 446.824 309.405 446.605 309.925C446.392 310.268 446.251 310.649 446.188 311.046C446.125 311.444 446.142 311.85 446.238 312.241C446.439 312.743 446.821 313.15 447.308 313.385C447.795 313.619 448.352 313.662 448.869 313.506C449.367 313.317 449.802 312.991 450.124 312.565C450.447 312.14 450.643 311.633 450.691 311.102C450.776 310.027 450.45 308.96 449.78 308.116" fill="url(#paint48_linear)"/>
<path d="M284.395 192.957C284.395 192.957 289.594 198.233 291.985 198.524C294.376 198.816 312.227 193.362 313.719 192.059C315.212 190.755 316.439 182.708 316.439 182.708L284.395 192.957Z" fill="url(#paint49_linear)"/>
<path d="M284.395 192.957C284.395 192.957 289.594 198.233 291.985 198.524C294.376 198.816 312.227 193.362 313.719 192.059C315.212 190.755 316.439 182.708 316.439 182.708L284.395 192.957Z" fill="url(#paint50_linear)"/>
<path d="M313.896 150.176C313.905 150.562 313.995 150.941 314.162 151.289C317.008 156.604 292.757 194.311 272.174 166.676C270.413 164.276 268.852 161.737 267.505 159.084C267.505 159.084 220.368 108.47 232.323 76.4187C244.215 44.5446 289.809 33.7765 314.364 65.0306C332.556 88.1105 313.087 140.458 313.896 150.176Z" fill="url(#paint51_linear)"/>
<path d="M313.896 150.176C313.905 150.562 313.995 150.941 314.162 151.289C317.008 156.604 292.757 194.311 272.174 166.676C270.413 164.276 268.852 161.737 267.505 159.084C267.505 159.084 220.368 108.47 232.323 76.4187C244.215 44.5446 289.809 33.7765 314.364 65.0306C332.556 88.1105 313.087 140.458 313.896 150.176Z" fill="url(#paint52_linear)"/>
<path d="M314.162 151.289C317.009 156.604 292.757 194.311 272.174 166.676C277.286 160.764 283.754 156.179 291.025 153.314C298.295 150.449 306.152 149.39 313.922 150.226C313.929 150.593 314.011 150.955 314.162 151.289Z" fill="url(#paint53_linear)"/>
<path d="M276.739 176.229C277.099 176.596 277.349 177.056 277.461 177.558C277.463 178.045 277.351 178.527 277.132 178.962C276.711 180.19 276.679 181.518 277.039 182.765C277.399 184.013 278.133 185.119 279.143 185.934C276.992 187.2 277.524 190.819 279.535 192.324C281.547 193.83 284.279 193.843 286.784 193.59C296.697 192.848 306.334 189.987 315.046 185.2C318.374 183.353 321.903 180.658 322.08 176.849C321.168 176.034 320.082 175.437 318.905 175.103C319.601 173.585 320.17 171.433 318.74 170.522C318.272 170.231 317.69 170.168 317.21 169.89C316.681 169.486 316.281 168.938 316.056 168.311C315.832 167.685 315.793 167.007 315.945 166.359C316.25 165.062 316.319 163.721 316.147 162.399C315.895 161.581 315.361 160.878 314.642 160.415C313.922 159.952 313.061 159.759 312.213 159.868C304.761 165.866 296.361 172.193 286.822 171.636C282.42 171.345 269.744 167.22 276.739 176.229Z" fill="url(#paint54_linear)"/>
<path d="M276.739 176.229C277.099 176.596 277.349 177.056 277.461 177.558C277.463 178.045 277.351 178.527 277.132 178.962C276.711 180.19 276.679 181.518 277.039 182.765C277.399 184.013 278.133 185.119 279.143 185.934C276.992 187.2 277.524 190.819 279.535 192.324C281.547 193.83 284.279 193.843 286.784 193.59C296.697 192.848 306.334 189.987 315.046 185.2C318.374 183.353 321.903 180.658 322.08 176.849C321.168 176.034 320.082 175.437 318.905 175.103C319.601 173.585 320.17 171.433 318.74 170.522C318.272 170.231 317.69 170.168 317.21 169.89C316.681 169.486 316.281 168.938 316.056 168.311C315.832 167.685 315.793 167.007 315.945 166.359C316.25 165.062 316.319 163.721 316.147 162.399C315.895 161.581 315.361 160.878 314.642 160.415C313.922 159.952 313.061 159.759 312.213 159.868C304.761 165.866 296.361 172.193 286.822 171.636C282.42 171.345 269.744 167.22 276.739 176.229Z" fill="url(#paint55_linear)"/>
<path d="M304.358 166.499L301.246 166.676L300.335 151.112C298.627 121.718 295.527 115.771 293.832 114.835C293.706 114.771 293.554 114.683 293.136 114.835C292.603 115.149 292.148 115.582 291.808 116.1C293.08 117.191 294.177 118.471 295.059 119.896C296.755 122.692 296.995 125.312 295.73 127.083C295.39 127.673 294.875 128.142 294.256 128.426C293.637 128.709 292.945 128.793 292.276 128.665C289.847 128.057 288.316 124.565 287.912 121.566C287.698 120.122 287.749 118.652 288.063 117.226C287.102 116.607 285.965 116.319 284.825 116.404C283.37 116.568 282.295 117.909 281.649 120.288C281.389 121.219 281.19 122.166 281.055 123.123C284.698 124.869 287.924 129.146 287.38 131.98C287.313 132.585 287.059 133.154 286.653 133.608C286.247 134.062 285.71 134.377 285.116 134.511C284.287 134.705 283.421 134.675 282.607 134.424C281.793 134.173 281.061 133.709 280.486 133.081C279.511 132.157 277.753 129.842 277.74 125.413C276.716 125.413 275.539 126.02 274.704 128.462C272.174 135.675 286.254 160.235 291.871 169.08L289.24 170.75C287.089 167.372 268.341 137.383 271.756 127.45C273.275 123.021 276.032 122.224 278.006 122.313C278.164 121.344 278.375 120.385 278.639 119.44C279.904 114.847 282.434 113.557 284.382 113.304C286.084 113.134 287.795 113.502 289.278 114.354C289.894 113.453 290.707 112.704 291.656 112.165C292.215 111.827 292.853 111.642 293.506 111.628C294.159 111.615 294.804 111.774 295.376 112.089C298.197 113.632 301.701 119.44 303.485 150.922L304.358 166.499ZM280.89 126.653C280.944 128.214 281.554 129.704 282.611 130.854C282.799 131.082 283.037 131.264 283.307 131.385C283.577 131.506 283.871 131.562 284.167 131.55C284.42 130.5 282.927 128.121 280.89 126.653ZM290.872 119.554C290.85 120.079 290.875 120.604 290.948 121.123C291.302 123.793 292.479 125.451 292.947 125.628C292.947 125.628 293.048 125.514 293.2 125.312C293.68 124.641 293.364 123.173 292.39 121.516C291.947 120.815 291.439 120.159 290.872 119.554Z" fill="white"/>
<defs>
<linearGradient id="paint0_linear" x1="406.512" y1="0" x2="406.512" y2="637.006" gradientUnits="userSpaceOnUse">
<stop stop-color="#FF006B"/>
<stop offset="1" stop-color="#89007B"/>
</linearGradient>
<linearGradient id="paint1_linear" x1="266.516" y1="22.8285" x2="266.516" y2="264.102" gradientUnits="userSpaceOnUse">
<stop stop-color="#FF006B"/>
<stop offset="1" stop-color="#89007B"/>
</linearGradient>
<linearGradient id="paint2_linear" x1="298.183" y1="203.485" x2="101.795" y2="-130.709" gradientUnits="userSpaceOnUse">
<stop stop-color="#010101" stop-opacity="0"/>
<stop offset="0.54" stop-color="#010101" stop-opacity="0.54"/>
<stop offset="0.95" stop-color="#010101"/>
</linearGradient>
<linearGradient id="paint3_linear" x1="218.128" y1="30.0942" x2="218.128" y2="53.1315" gradientUnits="userSpaceOnUse">
<stop stop-color="#FF006B"/>
<stop offset="1" stop-color="#89007B"/>
</linearGradient>
<linearGradient id="paint4_linear" x1="131.63" y1="176.256" x2="131.63" y2="198.776" gradientUnits="userSpaceOnUse">
<stop stop-color="#FF006B"/>
<stop offset="1" stop-color="#89007B"/>
</linearGradient>
<linearGradient id="paint5_linear" x1="178.673" y1="29.3238" x2="178.673" y2="47.9979" gradientUnits="userSpaceOnUse">
<stop stop-color="#FF006B"/>
<stop offset="1" stop-color="#89007B"/>
</linearGradient>
<linearGradient id="paint6_linear" x1="126.157" y1="94.3552" x2="126.157" y2="107.26" gradientUnits="userSpaceOnUse">
<stop stop-color="#FF006B"/>
<stop offset="1" stop-color="#89007B"/>
</linearGradient>
<linearGradient id="paint7_linear" x1="183.418" y1="60.7625" x2="183.418" y2="69.4899" gradientUnits="userSpaceOnUse">
<stop stop-color="#FF006B"/>
<stop offset="1" stop-color="#89007B"/>
</linearGradient>
<linearGradient id="paint8_linear" x1="468.61" y1="312.17" x2="468.61" y2="571.233" gradientUnits="userSpaceOnUse">
<stop stop-color="#FF006B"/>
<stop offset="1" stop-color="#89007B"/>
</linearGradient>
<linearGradient id="paint9_linear" x1="383.946" y1="272.072" x2="383.946" y2="574.803" gradientUnits="userSpaceOnUse">
<stop stop-color="#FF006B"/>
<stop offset="1" stop-color="#89007B"/>
</linearGradient>
<linearGradient id="paint10_linear" x1="324.093" y1="561.83" x2="541.825" y2="72.7943" gradientUnits="userSpaceOnUse">
<stop stop-color="#010101" stop-opacity="0"/>
<stop offset="0.95" stop-color="#010101"/>
</linearGradient>
<linearGradient id="paint11_linear" x1="381.511" y1="251.199" x2="381.511" y2="553.929" gradientUnits="userSpaceOnUse">
<stop stop-color="#FF006B"/>
<stop offset="1" stop-color="#89007B"/>
</linearGradient>
<linearGradient id="paint12_linear" x1="16189.2" y1="6081.92" x2="16480.9" y2="26672.4" gradientUnits="userSpaceOnUse">
<stop stop-color="#010101" stop-opacity="0"/>
<stop offset="0.95" stop-color="#010101"/>
</linearGradient>
<linearGradient id="paint13_linear" x1="25208.5" y1="5926.03" x2="25500.2" y2="26517.6" gradientUnits="userSpaceOnUse">
<stop stop-color="#010101" stop-opacity="0"/>
<stop offset="0.95" stop-color="#010101"/>
</linearGradient>
<linearGradient id="paint14_linear" x1="22939.7" y1="6017.52" x2="23231.5" y2="26608" gradientUnits="userSpaceOnUse">
<stop stop-color="#010101" stop-opacity="0"/>
<stop offset="0.95" stop-color="#010101"/>
</linearGradient>
<linearGradient id="paint15_linear" x1="32787.2" y1="5852.78" x2="33078.7" y2="26443.2" gradientUnits="userSpaceOnUse">
<stop stop-color="#010101" stop-opacity="0"/>
<stop offset="0.95" stop-color="#010101"/>
</linearGradient>
<linearGradient id="paint16_linear" x1="38690.3" y1="5824.68" x2="38981.8" y2="26410" gradientUnits="userSpaceOnUse">
<stop stop-color="#010101" stop-opacity="0"/>
<stop offset="0.95" stop-color="#010101"/>
</linearGradient>
<linearGradient id="paint17_linear" x1="35879.7" y1="5938.87" x2="36171.5" y2="26529.4" gradientUnits="userSpaceOnUse">
<stop stop-color="#010101" stop-opacity="0"/>
<stop offset="0.95" stop-color="#010101"/>
</linearGradient>
<linearGradient id="paint18_linear" x1="30486.9" y1="5944.83" x2="30778.6" y2="26537.9" gradientUnits="userSpaceOnUse">
<stop stop-color="#010101" stop-opacity="0"/>
<stop offset="0.95" stop-color="#010101"/>
</linearGradient>
<linearGradient id="paint19_linear" x1="234.005" y1="313.986" x2="234.005" y2="346.506" gradientUnits="userSpaceOnUse">
<stop stop-color="#FF006B"/>
<stop offset="1" stop-color="#89007B"/>
</linearGradient>
<linearGradient id="paint20_linear" x1="365.215" y1="284.133" x2="365.215" y2="316.631" gradientUnits="userSpaceOnUse">
<stop stop-color="#FF006B"/>
<stop offset="1" stop-color="#89007B"/>
</linearGradient>
<linearGradient id="paint21_linear" x1="333.391" y1="343.803" x2="333.391" y2="376.317" gradientUnits="userSpaceOnUse">
<stop stop-color="#FF006B"/>
<stop offset="1" stop-color="#89007B"/>
</linearGradient>
<linearGradient id="paint22_linear" x1="476.518" y1="316.476" x2="476.518" y2="348.998" gradientUnits="userSpaceOnUse">
<stop stop-color="#FF006B"/>
<stop offset="1" stop-color="#89007B"/>
</linearGradient>
<linearGradient id="paint23_linear" x1="564.498" y1="372.344" x2="564.498" y2="404.914" gradientUnits="userSpaceOnUse">
<stop stop-color="#FF006B"/>
<stop offset="1" stop-color="#89007B"/>
</linearGradient>
<linearGradient id="paint24_linear" x1="525.368" y1="446.177" x2="525.368" y2="478.747" gradientUnits="userSpaceOnUse">
<stop stop-color="#FF006B"/>
<stop offset="1" stop-color="#89007B"/>
</linearGradient>
<linearGradient id="paint25_linear" x1="444.694" y1="376.112" x2="444.694" y2="408.622" gradientUnits="userSpaceOnUse">
<stop stop-color="#FF006B"/>
<stop offset="1" stop-color="#89007B"/>
</linearGradient>
<linearGradient id="paint26_linear" x1="15490.8" y1="3957.82" x2="15674.2" y2="25376.2" gradientUnits="userSpaceOnUse">
<stop stop-color="#010101" stop-opacity="0"/>
<stop offset="0.95" stop-color="#010101"/>
</linearGradient>
<linearGradient id="paint27_linear" x1="24113.1" y1="3852.76" x2="24296.4" y2="25256.9" gradientUnits="userSpaceOnUse">
<stop stop-color="#010101" stop-opacity="0"/>
<stop offset="0.95" stop-color="#010101"/>
</linearGradient>
<linearGradient id="paint28_linear" x1="21952.5" y1="3932.4" x2="22135.9" y2="25347.1" gradientUnits="userSpaceOnUse">
<stop stop-color="#010101" stop-opacity="0"/>
<stop offset="0.95" stop-color="#010101"/>
</linearGradient>
<linearGradient id="paint29_linear" x1="31349.7" y1="3826.6" x2="31533.2" y2="25246.9" gradientUnits="userSpaceOnUse">
<stop stop-color="#010101" stop-opacity="0"/>
<stop offset="0.95" stop-color="#010101"/>
</linearGradient>
<linearGradient id="paint30_linear" x1="37056.9" y1="3839.76" x2="37240.8" y2="25291.2" gradientUnits="userSpaceOnUse">
<stop stop-color="#010101" stop-opacity="0"/>
<stop offset="0.95" stop-color="#010101"/>
</linearGradient>
<linearGradient id="paint31_linear" x1="34392.8" y1="3936.1" x2="34576.7" y2="25387.8" gradientUnits="userSpaceOnUse">
<stop stop-color="#010101" stop-opacity="0"/>
<stop offset="0.95" stop-color="#010101"/>
</linearGradient>
<linearGradient id="paint32_linear" x1="29190.3" y1="3903.1" x2="29373.6" y2="25315.2" gradientUnits="userSpaceOnUse">
<stop stop-color="#010101" stop-opacity="0"/>
<stop offset="0.95" stop-color="#010101"/>
</linearGradient>
<linearGradient id="paint33_linear" x1="661.126" y1="42.0167" x2="661.126" y2="256.604" gradientUnits="userSpaceOnUse">
<stop stop-color="#FF006B"/>
<stop offset="1" stop-color="#89007B"/>
</linearGradient>
<linearGradient id="paint34_linear" x1="668.527" y1="151.58" x2="655.961" y2="131.21" gradientUnits="userSpaceOnUse">
<stop stop-color="white" stop-opacity="0"/>
<stop offset="0.95" stop-color="white"/>
</linearGradient>
<linearGradient id="paint35_linear" x1="711.749" y1="142.007" x2="711.749" y2="237.815" gradientUnits="userSpaceOnUse">
<stop stop-color="#FF006B"/>
<stop offset="1" stop-color="#89007B"/>
</linearGradient>
<linearGradient id="paint36_linear" x1="685.82" y1="146.089" x2="685.82" y2="198.579" gradientUnits="userSpaceOnUse">
<stop stop-color="#FF006B"/>
<stop offset="1" stop-color="#89007B"/>
</linearGradient>
<linearGradient id="paint37_linear" x1="668.607" y1="167.599" x2="668.607" y2="203.923" gradientUnits="userSpaceOnUse">
<stop stop-color="#FF006B"/>
<stop offset="1" stop-color="#89007B"/>
</linearGradient>
<linearGradient id="paint38_linear" x1="4561.53" y1="5770.06" x2="4843.07" y2="5776.84" gradientUnits="userSpaceOnUse">
<stop stop-color="#010101" stop-opacity="0"/>
<stop offset="0.95" stop-color="#010101"/>
</linearGradient>
<linearGradient id="paint39_linear" x1="658.804" y1="361.126" x2="658.804" y2="372.992" gradientUnits="userSpaceOnUse">
<stop stop-color="#FF006B"/>
<stop offset="1" stop-color="#89007B"/>
</linearGradient>
<linearGradient id="paint40_linear" x1="732.285" y1="363.451" x2="732.285" y2="375.27" gradientUnits="userSpaceOnUse">
<stop stop-color="#FF006B"/>
<stop offset="1" stop-color="#89007B"/>
</linearGradient>
<linearGradient id="paint41_linear" x1="741.942" y1="95.8079" x2="741.942" y2="174.787" gradientUnits="userSpaceOnUse">
<stop stop-color="#FF006B"/>
<stop offset="1" stop-color="#89007B"/>
</linearGradient>
<linearGradient id="paint42_linear" x1="525.253" y1="223.123" x2="525.253" y2="264.418" gradientUnits="userSpaceOnUse">
<stop stop-color="#FF006B"/>
<stop offset="1" stop-color="#89007B"/>
</linearGradient>
<linearGradient id="paint43_linear" x1="18158.8" y1="8328.98" x2="19639.3" y2="10108.1" gradientUnits="userSpaceOnUse">
<stop stop-color="#010101" stop-opacity="0"/>
<stop offset="0.95" stop-color="#010101"/>
</linearGradient>
<linearGradient id="paint44_linear" x1="468.334" y1="269.184" x2="468.334" y2="303.778" gradientUnits="userSpaceOnUse">
<stop stop-color="#FF006B"/>
<stop offset="1" stop-color="#89007B"/>
</linearGradient>
<linearGradient id="paint45_linear" x1="14992.7" y1="7911.07" x2="16376.1" y2="9606.49" gradientUnits="userSpaceOnUse">
<stop stop-color="#010101" stop-opacity="0"/>
<stop offset="0.95" stop-color="#010101"/>
</linearGradient>
<linearGradient id="paint46_linear" x1="10813.9" y1="6582.82" x2="12626.7" y2="9421.64" gradientUnits="userSpaceOnUse">
<stop stop-color="white" stop-opacity="0"/>
<stop offset="0.95" stop-color="white"/>
</linearGradient>
<linearGradient id="paint47_linear" x1="3858.28" y1="5690.3" x2="3927.4" y2="5690.3" gradientUnits="userSpaceOnUse">
<stop stop-color="#010101" stop-opacity="0"/>
<stop offset="0.95" stop-color="#010101"/>
</linearGradient>
<linearGradient id="paint48_linear" x1="2079.16" y1="1772.77" x2="2095.64" y2="1772.77" gradientUnits="userSpaceOnUse">
<stop stop-color="#010101" stop-opacity="0"/>
<stop offset="0.95" stop-color="#010101"/>
</linearGradient>
<linearGradient id="paint49_linear" x1="300.417" y1="182.708" x2="300.417" y2="198.536" gradientUnits="userSpaceOnUse">
<stop stop-color="#FF006B"/>
<stop offset="1" stop-color="#89007B"/>
</linearGradient>
<linearGradient id="paint50_linear" x1="10677.2" y1="275.263" x2="11491.3" y2="23.7671" gradientUnits="userSpaceOnUse">
<stop stop-color="#010101" stop-opacity="0"/>
<stop offset="0.95" stop-color="#010101"/>
</linearGradient>
<linearGradient id="paint51_linear" x1="276.269" y1="46.3361" x2="276.269" y2="176.699" gradientUnits="userSpaceOnUse">
<stop stop-color="#FF006B"/>
<stop offset="1" stop-color="#89007B"/>
</linearGradient>
<linearGradient id="paint52_linear" x1="31161.4" y1="9146.74" x2="37480.3" y2="7194.72" gradientUnits="userSpaceOnUse">
<stop stop-color="white" stop-opacity="0"/>
<stop offset="0.95" stop-color="white"/>
</linearGradient>
<linearGradient id="paint53_linear" x1="14640.3" y1="438.67" x2="15278.4" y2="1816.8" gradientUnits="userSpaceOnUse">
<stop stop-color="#010101" stop-opacity="0"/>
<stop offset="0.95" stop-color="#010101"/>
</linearGradient>
<linearGradient id="paint54_linear" x1="298.378" y1="159.838" x2="298.378" y2="193.713" gradientUnits="userSpaceOnUse">
<stop stop-color="#FF006B"/>
<stop offset="1" stop-color="#89007B"/>
</linearGradient>
<linearGradient id="paint55_linear" x1="16611.4" y1="2078.72" x2="17168.5" y2="-214.344" gradientUnits="userSpaceOnUse">
<stop stop-color="#010101" stop-opacity="0"/>
<stop offset="0.95" stop-color="#010101"/>
</linearGradient>
</defs>
</svg>
