<svg width="141" height="58" viewBox="0 0 141 58" fill="none" xmlns="http://www.w3.org/2000/svg">
<path d="M32.7472 29.9155C32.8665 24.1096 28.0573 19.612 24.604 18.4471C22.7162 17.8116 17.3959 16.2545 11.737 19.5839C3.99969 24.1546 5.26298 32.2041 5.26298 32.2041C5.26298 32.2041 5.58233 34.8253 6.3645 36.0372C6.3645 36.0372 7.85213 38.941 9.41882 40.2206C10.7582 41.3144 13.3723 42.2151 13.3723 42.2151C13.3723 42.2151 17.4951 43.8158 23.6871 41.6679C29.8791 39.5201 32.6503 34.4775 32.7472 29.9155Z" fill="#FF006B"/>
<path d="M26.6003 20.8031C26.6003 20.8031 27.109 19.1105 29.1129 19.3969C30.874 19.6522 32.0886 22.128 31.7441 23.382C31.3997 24.6359 30.1126 25.3231 30.1126 25.3231L26.6003 20.8031V20.8031Z" fill="black"/>
<path d="M22.9758 2.51915C23.4603 2.51661 24.5924 5.58347 26.8217 4.88132C28.4701 4.36059 27.88 2.03469 25.6103 1.10576C23.5776 0.273119 22.3918 0.8261 21.2706 1.37832C19.6161 2.19065 18.1045 4.27994 17.5162 6.58911C16.9278 8.89827 16.2435 11.7935 16.1945 15.109C16.1455 18.4827 16.4017 18.5768 16.4017 18.5768L18.0307 18.5172C18.0307 18.5172 17.6369 17.7144 17.8311 14.0207C17.94 11.9333 18.4812 9.26092 19.0152 7.27462C19.6199 5.05413 21.0949 2.52286 22.9758 2.51915V2.51915Z" fill="#FF006B"/>
<path d="M9.59307 6.2673C10.025 6.14136 11.3154 7.56137 12.7845 6.47887C14.0863 5.51855 13.1971 3.52352 11.1055 3.55083C9.76887 3.56473 8.20896 4.70264 7.48464 5.62416C6.37125 7.05471 5.67713 9.28521 5.50375 11.4897C5.31908 13.7666 5.60392 15.8487 6.86217 18.7722C8.21425 21.8984 9.53351 23.1148 9.53351 23.1148L10.6469 21.6842C10.6469 21.6842 9.64417 20.5811 8.4239 18.1124C7.53695 16.3111 6.90237 14.2811 7.07694 11.7984C7.24598 9.49744 8.35886 6.61883 9.59307 6.2673V6.2673Z" fill="#FF006B"/>
<path d="M22.23 24.3244C23.3615 25.8268 23.9322 28.6139 21.6438 29.9433C19.0214 31.4652 17.0951 29.6768 16.2871 28.1769C15.5189 26.7437 15.1379 24.2069 17.1732 23.0998C19.3064 21.943 21.1071 22.8404 22.23 24.3244Z" fill="black"/>
<path d="M30.4263 31.4166C30.4377 32.2686 30.5807 32.7957 31.0961 33.0677C31.7356 33.4098 32.1852 33.1526 32.1852 33.1526C32.1852 33.1526 32.9081 32.2765 32.9231 30.678C32.9337 29.7911 32.6495 28.5235 32.6495 28.5235C32.6495 28.5235 30.4087 29.8734 30.4263 31.4166V31.4166Z" fill="black"/>
<rect x="21" y="39" width="5" height="4" fill="white"/>
<path d="M11.976 48.024H5.688L4.68 51H0.384003L6.48 34.152H11.232L17.328 51H12.984L11.976 48.024ZM10.92 44.856L8.832 38.688L6.768 44.856H10.92Z" fill="black"/>
<path d="M34.2553 51H30.1513L23.2873 40.608V51H19.1833V34.152H23.2873L30.1513 44.592V34.152H34.2553V51Z" fill="black"/>
<path d="M49.3502 34.152V37.44H44.8862V51H40.7822V37.44H36.3182V34.152H49.3502Z" fill="black"/>
<path d="M69.3358 39.576C69.3358 40.552 69.1118 41.448 68.6638 42.264C68.2158 43.064 67.5278 43.712 66.5998 44.208C65.6718 44.704 64.5198 44.952 63.1438 44.952H60.5998V51H56.4958V34.152H63.1438C64.4878 34.152 65.6238 34.384 66.5518 34.848C67.4798 35.312 68.1758 35.952 68.6398 36.768C69.1038 37.584 69.3358 38.52 69.3358 39.576ZM62.8318 41.688C63.6158 41.688 64.1998 41.504 64.5838 41.136C64.9678 40.768 65.1598 40.248 65.1598 39.576C65.1598 38.904 64.9678 38.384 64.5838 38.016C64.1998 37.648 63.6158 37.464 62.8318 37.464H60.5998V41.688H62.8318Z" fill="black"/>
<path d="M75.5764 39.84C76.0564 39.104 76.6564 38.528 77.3764 38.112C78.0964 37.68 78.8964 37.464 79.7764 37.464V41.808H78.6484C77.6244 41.808 76.8564 42.032 76.3444 42.48C75.8324 42.912 75.5764 43.68 75.5764 44.784V51H71.4724V37.608H75.5764V39.84Z" fill="black"/>
<path d="M87.834 51.192C86.522 51.192 85.338 50.912 84.282 50.352C83.242 49.792 82.418 48.992 81.81 47.952C81.218 46.912 80.922 45.696 80.922 44.304C80.922 42.928 81.226 41.72 81.834 40.68C82.442 39.624 83.274 38.816 84.33 38.256C85.386 37.696 86.57 37.416 87.882 37.416C89.194 37.416 90.378 37.696 91.434 38.256C92.49 38.816 93.322 39.624 93.93 40.68C94.538 41.72 94.842 42.928 94.842 44.304C94.842 45.68 94.53 46.896 93.906 47.952C93.298 48.992 92.458 49.792 91.386 50.352C90.33 50.912 89.146 51.192 87.834 51.192ZM87.834 47.64C88.618 47.64 89.282 47.352 89.826 46.776C90.386 46.2 90.666 45.376 90.666 44.304C90.666 43.232 90.394 42.408 89.85 41.832C89.322 41.256 88.666 40.968 87.882 40.968C87.082 40.968 86.418 41.256 85.89 41.832C85.362 42.392 85.098 43.216 85.098 44.304C85.098 45.376 85.354 46.2 85.866 46.776C86.394 47.352 87.05 47.64 87.834 47.64Z" fill="black"/>
<path d="M101.123 52.728C101.123 54.376 100.707 55.56 99.8753 56.28C99.0433 57.016 97.8832 57.384 96.3952 57.384H94.7872V53.904H95.7712C96.2192 53.904 96.5392 53.816 96.7312 53.64C96.9232 53.464 97.0192 53.176 97.0192 52.776V37.608H101.123V52.728Z" fill="black"/>
<path d="M116.698 44.088C116.698 44.472 116.674 44.872 116.626 45.288H107.338C107.402 46.12 107.666 46.76 108.13 47.208C108.61 47.64 109.194 47.856 109.882 47.856C110.906 47.856 111.618 47.424 112.018 46.56H116.386C116.162 47.44 115.754 48.232 115.162 48.936C114.586 49.64 113.858 50.192 112.978 50.592C112.098 50.992 111.114 51.192 110.026 51.192C108.714 51.192 107.546 50.912 106.522 50.352C105.498 49.792 104.698 48.992 104.122 47.952C103.546 46.912 103.258 45.696 103.258 44.304C103.258 42.912 103.538 41.696 104.098 40.656C104.674 39.616 105.474 38.816 106.498 38.256C107.522 37.696 108.698 37.416 110.026 37.416C111.322 37.416 112.474 37.688 113.482 38.232C114.49 38.776 115.274 39.552 115.834 40.56C116.41 41.568 116.698 42.744 116.698 44.088ZM112.498 43.008C112.498 42.304 112.258 41.744 111.778 41.328C111.298 40.912 110.698 40.704 109.978 40.704C109.29 40.704 108.706 40.904 108.226 41.304C107.762 41.704 107.474 42.272 107.362 43.008H112.498Z" fill="black"/>
<path d="M118.047 44.304C118.047 42.912 118.327 41.696 118.887 40.656C119.463 39.616 120.255 38.816 121.263 38.256C122.287 37.696 123.455 37.416 124.767 37.416C126.447 37.416 127.847 37.856 128.967 38.736C130.103 39.616 130.847 40.856 131.199 42.456H126.831C126.463 41.432 125.751 40.92 124.695 40.92C123.943 40.92 123.343 41.216 122.895 41.808C122.447 42.384 122.223 43.216 122.223 44.304C122.223 45.392 122.447 46.232 122.895 46.824C123.343 47.4 123.943 47.688 124.695 47.688C125.751 47.688 126.463 47.176 126.831 46.152H131.199C130.847 47.72 130.103 48.952 128.967 49.848C127.831 50.744 126.431 51.192 124.767 51.192C123.455 51.192 122.287 50.912 121.263 50.352C120.255 49.792 119.463 48.992 118.887 47.952C118.327 46.912 118.047 45.696 118.047 44.304Z" fill="black"/>
<path d="M140.858 47.52V51H138.77C137.282 51 136.122 50.64 135.29 49.92C134.458 49.184 134.042 47.992 134.042 46.344V41.016H132.41V37.608H134.042V34.344H138.146V37.608H140.834V41.016H138.146V46.392C138.146 46.792 138.242 47.08 138.434 47.256C138.626 47.432 138.946 47.52 139.394 47.52H140.858Z" fill="black"/>
<path d="M97.2832 35.592C97.7472 36.008 98.3392 36.216 99.0592 36.216C99.7633 36.216 100.339 36.008 100.787 35.592C101.251 35.16 101.483 34.632 101.483 34.008C101.483 33.368 101.251 32.84 100.787 32.424C100.339 31.992 99.7633 31.776 99.0592 31.776C98.3392 31.776 97.7472 31.992 97.2832 32.424C96.8352 32.84 96.6113 33.368 96.6113 34.008C96.6113 34.632 96.8352 35.16 97.2832 35.592Z" fill="#FF006B"/>
</svg>
