<svg width="27" height="27" viewBox="0 0 27 27" fill="none" xmlns="http://www.w3.org/2000/svg">
<path d="M15.6641 13.2745L12.632 11.8597C12.3674 11.7369 12.15 11.8746 12.15 12.1675V14.8324C12.15 15.1254 12.3674 15.2631 12.632 15.1402L15.6627 13.7254C15.9287 13.6012 15.9287 13.3987 15.6641 13.2745ZM13.5 0.539997C6.34234 0.539997 0.540039 6.3423 0.540039 13.5C0.540039 20.6577 6.34234 26.46 13.5 26.46C20.6577 26.46 26.46 20.6577 26.46 13.5C26.46 6.3423 20.6577 0.539997 13.5 0.539997ZM13.5 18.765C6.86614 18.765 6.75004 18.1669 6.75004 13.5C6.75004 8.83305 6.86614 8.235 13.5 8.235C20.1339 8.235 20.25 8.83305 20.25 13.5C20.25 18.1669 20.1339 18.765 13.5 18.765Z" fill="white"/>
</svg>
